<?xml version="1.0" encoding="UTF-8" standalone="no"?>
<!-- Created with Inkscape (http://www.inkscape.org/) -->

<svg
   width="120mm"
   height="120mm"
   viewBox="-60 -60 120 120"
   sodipodi:docname="renard_vectoriel.svg"
   version="1.1"
   id="svg22"
   xml:space="preserve"
   inkscape:version="1.2.2 (b0a8486541, 2022-12-01)"
   xmlns:inkscape="http://www.inkscape.org/namespaces/inkscape"
   xmlns:sodipodi="http://sodipodi.sourceforge.net/DTD/sodipodi-0.dtd"
   xmlns:xlink="http://www.w3.org/1999/xlink"
   xmlns="http://www.w3.org/2000/svg"
   xmlns:svg="http://www.w3.org/2000/svg"
   xmlns:rdf="http://www.w3.org/1999/02/22-rdf-syntax-ns#"
   xmlns:cc="http://creativecommons.org/ns#"
   xmlns:dc="http://purl.org/dc/elements/1.1/"><defs
     id="defs24"><pattern
       inkscape:collect="always"
       xlink:href="#Strips1_1-4"
       id="pattern5147"
       patternTransform="matrix(10,0,0,10,-0.23821262,-0.5903701)" /><linearGradient
       inkscape:collect="always"
       id="linearGradient3148"><stop
         style="stop-color:#000000;stop-opacity:1;"
         offset="0"
         id="stop3144" /><stop
         style="stop-color:#000000;stop-opacity:0;"
         offset="1"
         id="stop3146" /></linearGradient><linearGradient
       inkscape:collect="always"
       id="linearGradient3140"><stop
         style="stop-color:#000000;stop-opacity:1;"
         offset="0"
         id="stop3136" /><stop
         style="stop-color:#ffffff;stop-opacity:0;"
         offset="1"
         id="stop3138" /></linearGradient><pattern
       inkscape:collect="always"
       patternUnits="userSpaceOnUse"
       width="2"
       height="1"
       patternTransform="translate(0,0) scale(10,10)"
       id="Strips1_1"
       inkscape:stockid="Stripes 1:1"><rect
         style="fill:black;stroke:none"
         x="0"
         y="-0.5"
         width="1"
         height="2"
         id="rect2037" /></pattern><linearGradient
       inkscape:collect="always"
       id="linearGradient1053"><stop
         style="stop-color:#552200;stop-opacity:1;"
         offset="0"
         id="stop1049" /><stop
         style="stop-color:#38312c;stop-opacity:1;"
         offset="1"
         id="stop1051" /></linearGradient><linearGradient
       inkscape:collect="always"
       id="linearGradient8930"><stop
         style="stop-color:#ffccaa;stop-opacity:1;"
         offset="0"
         id="stop8926" /><stop
         style="stop-color:#f75f00;stop-opacity:1;"
         offset="1"
         id="stop8928" /></linearGradient><linearGradient
       inkscape:collect="always"
       id="linearGradient8835"><stop
         style="stop-color:#ffcab6;stop-opacity:1;"
         offset="0"
         id="stop8831" /><stop
         style="stop-color:#f75f00;stop-opacity:1;"
         offset="1"
         id="stop8833" /></linearGradient><linearGradient
       inkscape:collect="always"
       id="linearGradient8684"><stop
         style="stop-color:#ff883a;stop-opacity:1;"
         offset="0"
         id="stop8680" /><stop
         style="stop-color:#ffb380;stop-opacity:1;"
         offset="1"
         id="stop8682" /></linearGradient><linearGradient
       inkscape:collect="always"
       id="linearGradient7130"><stop
         style="stop-color:#f75f00;stop-opacity:1;"
         offset="0"
         id="stop7126" /><stop
         style="stop-color:#38312c;stop-opacity:1;"
         offset="1"
         id="stop7128" /></linearGradient><linearGradient
       inkscape:collect="always"
       id="linearGradient7122"><stop
         style="stop-color:#f75f00;stop-opacity:1;"
         offset="0"
         id="stop7986" /><stop
         style="stop-color:#ff6f0f;stop-opacity:1;"
         offset="0.54447442"
         id="stop7118" /><stop
         style="stop-color:#3b1500;stop-opacity:1;"
         offset="1"
         id="stop7120" /></linearGradient><linearGradient
       inkscape:collect="always"
       xlink:href="#linearGradient7122"
       id="linearGradient7124"
       x1="-0.99354708"
       y1="-23.214239"
       x2="28.638388"
       y2="-4.2965302"
       gradientUnits="userSpaceOnUse" /><linearGradient
       inkscape:collect="always"
       xlink:href="#linearGradient7130"
       id="linearGradient7132"
       x1="-11.998997"
       y1="1.909422"
       x2="-0.50337273"
       y2="13.10447"
       gradientUnits="userSpaceOnUse" /><linearGradient
       inkscape:collect="always"
       xlink:href="#linearGradient8684"
       id="linearGradient8686"
       x1="25.833469"
       y1="-34.87981"
       x2="30.130796"
       y2="-29.191269"
       gradientUnits="userSpaceOnUse" /><linearGradient
       inkscape:collect="always"
       xlink:href="#linearGradient8835"
       id="linearGradient8837"
       x1="-38.491844"
       y1="49.172001"
       x2="-39.830158"
       y2="39.20953"
       gradientUnits="userSpaceOnUse" /><linearGradient
       inkscape:collect="always"
       xlink:href="#linearGradient8930"
       id="linearGradient8932"
       x1="368.90033"
       y1="36.069923"
       x2="362.65253"
       y2="45.085537"
       gradientUnits="userSpaceOnUse" /><linearGradient
       inkscape:collect="always"
       xlink:href="#linearGradient1053"
       id="linearGradient346"
       gradientUnits="userSpaceOnUse"
       x1="-11.998997"
       y1="1.909422"
       x2="-0.50337273"
       y2="13.10447"
       gradientTransform="rotate(10,-14.833672,-15.503833)" /><linearGradient
       inkscape:collect="always"
       xlink:href="#linearGradient3140"
       id="linearGradient3142"
       x1="33.725269"
       y1="-25.645218"
       x2="32.663296"
       y2="-26.416958"
       gradientUnits="userSpaceOnUse" /><linearGradient
       inkscape:collect="always"
       xlink:href="#linearGradient3148"
       id="linearGradient3150"
       x1="25.238158"
       y1="-29.852726"
       x2="35.02559"
       y2="-29.852726"
       gradientUnits="userSpaceOnUse" /><filter
       inkscape:collect="always"
       style="color-interpolation-filters:sRGB"
       id="filter3152"
       x="-0.1092383"
       y="-0.037116079"
       width="1.217092"
       height="1.0739389"><feGaussianBlur
         inkscape:collect="always"
         stdDeviation="0.19127621"
         id="feGaussianBlur3154" /></filter><filter
       inkscape:collect="always"
       style="color-interpolation-filters:sRGB"
       id="filter3156"
       x="-0.11408013"
       y="-0.054581148"
       width="1.228208"
       height="1.1091597"><feGaussianBlur
         inkscape:collect="always"
         stdDeviation="0.46181173"
         id="feGaussianBlur3158" /></filter><filter
       inkscape:collect="always"
       style="color-interpolation-filters:sRGB"
       id="filter3160"
       x="-0.0040142698"
       y="-0.015514553"
       width="1.0080155"
       height="1.031029"><feGaussianBlur
         inkscape:collect="always"
         stdDeviation="0.10336324"
         id="feGaussianBlur3162" /></filter><filter
       inkscape:collect="always"
       style="color-interpolation-filters:sRGB"
       id="filter3164"
       x="-0.012160013"
       y="-0.01814843"
       width="1.0251678"
       height="1.0362834"><feGaussianBlur
         inkscape:collect="always"
         stdDeviation="0.03769969"
         id="feGaussianBlur3166" /></filter><filter
       inkscape:collect="always"
       style="color-interpolation-filters:sRGB"
       id="filter3168"
       x="-0.008844035"
       y="-0.0071952667"
       width="1.0176961"
       height="1.0143905"><feGaussianBlur
         inkscape:collect="always"
         stdDeviation="0.31670729"
         id="feGaussianBlur3170" /></filter><filter
       inkscape:collect="always"
       style="color-interpolation-filters:sRGB"
       id="filter3176"
       x="-0.00080861667"
       y="-0.00062086356"
       width="1.0016172"
       height="1.0012417"><feGaussianBlur
         inkscape:collect="always"
         stdDeviation="0.0081880396"
         id="feGaussianBlur3178" /></filter><filter
       inkscape:collect="always"
       style="color-interpolation-filters:sRGB"
       id="filter3180"
       x="-0.097993896"
       y="-0.033467503"
       width="1.1959451"
       height="1.0669275"><feGaussianBlur
         inkscape:collect="always"
         stdDeviation="0.27733965"
         id="feGaussianBlur3182" /></filter><filter
       inkscape:collect="always"
       style="color-interpolation-filters:sRGB"
       id="filter4916"
       x="-0.30609531"
       y="-0.050447866"
       width="1.611636"
       height="1.1009236"><feGaussianBlur
         inkscape:collect="always"
         stdDeviation="0.064512399"
         id="feGaussianBlur4918" /></filter><filter
       inkscape:collect="always"
       style="color-interpolation-filters:sRGB"
       id="filter4920"
       x="-0.23000919"
       y="-0.13565452"
       width="1.4600043"
       height="1.2712771"><feGaussianBlur
         inkscape:collect="always"
         stdDeviation="0.24198714"
         id="feGaussianBlur4922" /></filter><filter
       inkscape:collect="always"
       style="color-interpolation-filters:sRGB"
       id="filter4924"
       x="-0.012498537"
       y="-0.019499097"
       width="1.0249764"
       height="1.0390142"><feGaussianBlur
         inkscape:collect="always"
         stdDeviation="0.20225431"
         id="feGaussianBlur4926" /></filter><filter
       inkscape:collect="always"
       style="color-interpolation-filters:sRGB"
       id="filter4928"
       x="-0.017876874"
       y="-0.015793518"
       width="1.0357103"
       height="1.0315962"><feGaussianBlur
         inkscape:collect="always"
         stdDeviation="0.20225431"
         id="feGaussianBlur4930" /></filter><filter
       inkscape:collect="always"
       style="color-interpolation-filters:sRGB"
       id="filter4932"
       x="-0.024960205"
       y="-0.012249608"
       width="1.0499187"
       height="1.0245015"><feGaussianBlur
         inkscape:collect="always"
         stdDeviation="0.20225431"
         id="feGaussianBlur4934" /></filter><filter
       inkscape:collect="always"
       style="color-interpolation-filters:sRGB"
       id="filter4936"
       x="-0.16075047"
       y="-0.12085655"
       width="1.3215009"
       height="1.2417131"><feGaussianBlur
         inkscape:collect="always"
         stdDeviation="0.20225431"
         id="feGaussianBlur4938" /></filter><filter
       inkscape:collect="always"
       style="color-interpolation-filters:sRGB"
       id="filter4940"
       x="-0.16068381"
       y="-0.11990308"
       width="1.3213676"
       height="1.2398062"><feGaussianBlur
         inkscape:collect="always"
         stdDeviation="0.20225525"
         id="feGaussianBlur4942" /></filter><filter
       inkscape:collect="always"
       style="color-interpolation-filters:sRGB"
       id="filter4944"
       x="-0.14883309"
       y="-0.12034781"
       width="1.2976662"
       height="1.2406956"><feGaussianBlur
         inkscape:collect="always"
         stdDeviation="0.2022676"
         id="feGaussianBlur4946" /></filter><filter
       inkscape:collect="always"
       style="color-interpolation-filters:sRGB"
       id="filter4948"
       x="-0.14732521"
       y="-0.12113512"
       width="1.2946504"
       height="1.2422702"><feGaussianBlur
         inkscape:collect="always"
         stdDeviation="0.20225438"
         id="feGaussianBlur4950" /></filter><filter
       inkscape:collect="always"
       style="color-interpolation-filters:sRGB"
       id="filter4952"
       x="-0.14732519"
       y="-0.12113511"
       width="1.2946504"
       height="1.2422702"><feGaussianBlur
         inkscape:collect="always"
         stdDeviation="0.20225438"
         id="feGaussianBlur4954" /></filter><filter
       inkscape:collect="always"
       style="color-interpolation-filters:sRGB"
       id="filter4956"
       x="-0.14249564"
       y="-0.12153661"
       width="1.2849913"
       height="1.2430732"><feGaussianBlur
         inkscape:collect="always"
         stdDeviation="0.20225431"
         id="feGaussianBlur4958" /></filter><filter
       inkscape:collect="always"
       style="color-interpolation-filters:sRGB"
       id="filter4960"
       x="-0.14249564"
       y="-0.12153661"
       width="1.2849913"
       height="1.2430732"><feGaussianBlur
         inkscape:collect="always"
         stdDeviation="0.20225431"
         id="feGaussianBlur4962" /></filter><filter
       inkscape:collect="always"
       style="color-interpolation-filters:sRGB"
       id="filter4964"
       x="-0.14249564"
       y="-0.12153661"
       width="1.2849913"
       height="1.2430732"><feGaussianBlur
         inkscape:collect="always"
         stdDeviation="0.20225431"
         id="feGaussianBlur4966" /></filter><filter
       inkscape:collect="always"
       style="color-interpolation-filters:sRGB"
       id="filter4968"
       x="-0.14249564"
       y="-0.12153661"
       width="1.2849913"
       height="1.2430732"><feGaussianBlur
         inkscape:collect="always"
         stdDeviation="0.20225431"
         id="feGaussianBlur4970" /></filter><filter
       inkscape:collect="always"
       style="color-interpolation-filters:sRGB"
       id="filter4972"
       x="-0.14249564"
       y="-0.12153661"
       width="1.2849913"
       height="1.2430732"><feGaussianBlur
         inkscape:collect="always"
         stdDeviation="0.20225431"
         id="feGaussianBlur4974" /></filter><filter
       inkscape:collect="always"
       style="color-interpolation-filters:sRGB"
       id="filter4976"
       x="-0.14249564"
       y="-0.12153661"
       width="1.2849913"
       height="1.2430732"><feGaussianBlur
         inkscape:collect="always"
         stdDeviation="0.20225431"
         id="feGaussianBlur4978" /></filter><pattern
       inkscape:collect="always"
       patternUnits="userSpaceOnUse"
       width="2"
       height="1"
       patternTransform="translate(0,0) scale(10,10)"
       id="Strips1_1-4"
       inkscape:stockid="Stripes 1:1"><rect
         style="fill:black;stroke:none"
         x="0"
         y="-0.5"
         width="1"
         height="2"
         id="rect2037-5" /></pattern><filter
       inkscape:collect="always"
       style="color-interpolation-filters:sRGB"
       id="filter3176-3"
       x="-0.046309671"
       y="-0.025013672"
       width="1.0926193"
       height="1.0500274"><feGaussianBlur
         inkscape:collect="always"
         stdDeviation="0.33457358"
         id="feGaussianBlur3178-7" /></filter><filter
       inkscape:collect="always"
       style="color-interpolation-filters:sRGB"
       id="filter5292"
       x="-0.04280988"
       y="-0.04674436"
       width="1.0856198"
       height="1.0934887"><feGaussianBlur
         inkscape:collect="always"
         stdDeviation="0.45604268"
         id="feGaussianBlur5294" /></filter><filter
       inkscape:collect="always"
       style="color-interpolation-filters:sRGB"
       id="filter5300"
       x="-0.027590423"
       y="-0.01992856"
       width="1.0551799"
       height="1.0398581"><feGaussianBlur
         inkscape:collect="always"
         stdDeviation="0.26239517"
         id="feGaussianBlur5302" /></filter><filter
       inkscape:collect="always"
       style="color-interpolation-filters:sRGB"
       id="filter5304"
       x="-0.059995519"
       y="-0.04311304"
       width="1.1190095"
       height="1.0855135"><feGaussianBlur
         inkscape:collect="always"
         stdDeviation="0.28674647"
         id="feGaussianBlur5306" /></filter><filter
       inkscape:collect="always"
       style="color-interpolation-filters:sRGB"
       id="filter5308"
       x="-0.0089162718"
       y="-0.0086433859"
       width="1.0178325"
       height="1.0172868"><feGaussianBlur
         inkscape:collect="always"
         stdDeviation="0.11592972"
         id="feGaussianBlur5310" /></filter></defs><sodipodi:namedview
     pagecolor="#ffffff"
     bordercolor="#666666"
     borderopacity="1.0"
     inkscape:pageopacity="0.0"
     inkscape:pageshadow="2"
     inkscape:zoom="1.4142136"
     inkscape:cx="129.75409"
     inkscape:cy="231.93102"
     inkscape:document-units="mm"
     inkscape:current-layer="Template"
     showgrid="false"
     units="mm"
     showguides="true"
     inkscape:guide-bbox="true"
     inkscape:snap-global="true"
     inkscape:snap-bbox="true"
     inkscape:snap-bbox-midpoints="true"
     inkscape:window-width="1920"
     inkscape:window-height="1009"
     inkscape:window-x="1592"
     inkscape:window-y="-8"
     inkscape:window-maximized="1"
     inkscape:bbox-paths="true"
     inkscape:bbox-nodes="true"
     inkscape:snap-bbox-edge-midpoints="true"
     inkscape:snap-grids="true"
     id="namedview12"
     inkscape:showpageshadow="0"
     inkscape:pagecheckerboard="0"
     inkscape:deskcolor="#d1d1d1"><sodipodi:guide
       orientation="1,0"
       position="226.771653543,226.771653543"
       id="guide2827"
       inkscape:locked="false" /><sodipodi:guide
       orientation="0,1"
       position="226.771653543,226.771653543"
       id="guide2829"
       inkscape:locked="false" /><inkscape:grid
       type="xygrid"
       id="grid3072"
       empspacing="10"
       visible="true"
       enabled="true"
       snapvisiblegridlinesonly="true"
       units="mm"
       dotted="false"
       spacingx="0.1mm"
       spacingy="0.1mm" /></sodipodi:namedview><metadata
     id="metadata2822"><rdf:RDF><cc:Work
         rdf:about=""><dc:format>image/svg+xml</dc:format><dc:type
           rdf:resource="http://purl.org/dc/dcmitype/StillImage" /></cc:Work></rdf:RDF></metadata><g
     inkscape:label="Layer 1"
     inkscape:groupmode="layer"
     id="Template"
     style="fill:none;stroke:black;stroke-width:0.05"><path
       style="mix-blend-mode:normal;fill:url(#linearGradient346);fill-opacity:1;stroke:#000000;stroke-width:0.013;stroke-dasharray:none;filter:url(#filter5300)"
       d="m -20.213695,-17.30535 c 0,0 13.620197,-0.499718 11.9865653,6.680858 l -1.2667224,5.5678387 c 0,0 -1.4649179,3.0213171 -2.6785349,4.61743667 -1.089086,1.4323384 -4.658669,5.08918003 -4.658669,5.08918003 0,0 -4.835214,3.0430633 0.675017,4.5519955 5.510231,1.5089321 6.9433309,1.7616261 6.9433309,1.7616261 l 1.578803,0.950048 c 0,0 3.8596646,3.276462 -3.1662669,2.611264 -4.491761,0.07426 -7.505263,-1.343605 -12.120932,-1.876284 -4.276363,-0.946252 -8.261046,-1.315092 -6.117417,-5.0465209 2.634863,-4.361825 6.765514,-9.419323 6.183022,-9.9250295 -0.582492,-0.5057066 -1.786189,-4.3449277 -1.786189,-4.3449277 l 0.765475,-6.2458189 z"
       id="path6824-5"
       sodipodi:nodetypes="cscscscccccsccc"
       inkscape:label="patte_arrière" /><path
       style="fill:#f75f00;fill-opacity:1;stroke-width:0.00661458;filter:url(#filter3168)"
       d="m -39.772916,55.234824 c -0.583023,-0.719236 -0.920592,-1.604794 -1.271884,-2.450338 -0.109528,-0.485117 -0.516825,-1.735866 -0.690222,-3.009636 -0.20505,-1.506289 -1.310461,-8.953775 -1.462861,-9.855729 -0.139079,-0.823116 -0.217178,-1.510874 -0.338004,-2.976562 -0.04002,-1.322263 -0.11739,-2.237905 -0.182249,-3.265988 -0.062,-0.859462 -0.119818,-4.115186 -0.128474,-7.234944 -0.0087,-3.119755 -0.0476,-5.723839 -0.08654,-5.78685 -0.03894,-0.06301 -0.07759,-2.689698 -0.08589,-5.837089 -0.01331,-5.0483773 0.01226,-5.8316179 0.217019,-6.6485659 0.127655,-0.509323 0.262652,-1.104635 0.299993,-1.322917 0.03734,-0.218281 0.300579,-1.260078 0.584974,-2.315104 0.284395,-1.055026 0.54728,-2.050619 0.584191,-2.21243 0.03691,-0.161811 0.137389,-0.459467 0.223288,-0.661458 0.0859,-0.201991 0.165184,-0.426789 0.17619,-0.499549 0.02297,-0.151826 0.04569,-0.22348604 0.440529,-1.38906305 0.160209,-0.472943 0.157753,-0.40740551 0.325273,-1.01191495 0.231966,-0.4731148 0.477346,-0.8020702 0.729302,-1.170897 0.212326,-0.2926961 0.694019,-0.932657 1.070429,-1.5875 0.376409,-0.654844 0.773581,-1.339453 0.882603,-1.521355 0.109023,-0.181901 0.368063,-0.695809 0.575645,-1.142015 0.207582,-0.446209 0.432493,-0.845325 0.499801,-0.886923 0.06731,-0.0416 0.293429,-0.480193 0.502491,-0.974651 0.209062,-0.494456 0.452749,-0.973156 0.541527,-1.063771 0.08878,-0.09062 0.35644,-0.5073361 0.594805,-0.9260411 0.515319,-0.905198 1.19167,-1.867136 1.681469,-2.391469 0.648275,-0.693978 1.062334,-1.642552 1.285037,-2.943907 0.117348,-0.685708 0.215341,-1.33604 0.217765,-1.445181 0.01037,-0.467836 0.383273,-2.78193 0.575567,-3.571875 0.115128,-0.472943 0.209327,-0.962903 0.209333,-1.0888 0.255561,-0.916091 0.363363,-1.465892 0.601679,-2.218492 0.04744,-0.10914 0.09139,-0.238125 0.09768,-0.286631 0.204695,-0.508381 0.289632,-0.882444 0.474447,-1.269629 0.145521,-0.301194 0.235496,-0.607894 0.264583,-0.666369 0.148828,-0.299196 0.902756,-1.800678 1.24415,-2.341433 0.402652,-0.497071 0.599511,-0.842538 1.004809,-1.527127 0.284535,-0.414565 0.417848,-0.636558 0.661458,-1.018136 0.293086,-0.343582 0.473637,-0.560217 0.648634,-0.828174 1.28886,-1.47057 2.688784,-2.866799 3.915105,-3.96875 0.420066,-0.327422 1.038466,-0.846635 1.374228,-1.153806 0.335759,-0.307172 0.657608,-0.56018 0.715221,-0.56224 0.05761,-0.0021 0.236207,-0.129033 0.396875,-0.28216 0.160669,-0.153128 0.440952,-0.374941 0.622853,-0.492918 0.432858,-0.314861 0.898219,-0.659574 1.129922,-0.849241 0.452609,-0.345567 0.880668,-0.644092 1.224029,-0.960573 0.196916,-0.182703 0.715216,-0.552182 1.151779,-0.821064 0.436562,-0.268882 0.853281,-0.537286 0.926041,-0.596453 0.704018,-0.438584 1.188316,-0.762022 1.817124,-1.150942 0.62189,-0.424395 0.848992,-0.599316 1.723425,-1.054589 2.9024571,-1.653155 5.7791321,-2.918665 8.3783777,-4.246845 0.9506792,-0.403815 1.4062121,-0.593985 2.170127,-0.859892 2.3569449,-0.613862 4.763378,-1.119576 6.879166,-1.227237 8.3495833,0.06611 16.2179253,-0.292104 22.9783403,0.221652 3.743798,0.609002 3.614349,0.573753 4.738828,0.609599 3.156141,0.699009 5.254662,0.04438 7.894094,1.615964 0.198438,0.286754 0.338729,0.416358 0.363577,0.488794 0.138784,0.404589 0.604514,0.719167 0.701906,1.251508 -1.944065,-0.07994 -5.45996,-1.539972 -7.140004,2.470055 -0.799436,2.858182 0.177148,4.869885 0.195813,5.087038 0.253008,2.943574 0.09564,1.324654 0.09126,2.943489 -0.0087,3.22255 -0.0088,3.222944 -0.969698,6.052192 -0.614243,1.808517 -0.892622,3.483072 -1.011645,6.085413 -0.129117,2.82306 -0.480124,3.063359 -0.8121,3.395337 -0.207804,0.207807 -0.748949,0.25916 -0.408687,0.758894 -1.127367,-0.28104 -2.933219,-0.775359 -3.088508,-0.813864 -0.106862,-0.02662 -0.506159,-0.09425 -0.580573,-0.344505 -0.09689,0.127724 -0.456757,-0.42526 -0.713376,-0.721533 -0.534467,-0.653924 -0.895395,-1.161622 -1.317241,-1.770732 -0.374357,-0.442346 -1.091221,-1.184897 -2.125877,-2.421824 -1.034656,-1.236927 -2.056982,-2.457318 -2.271834,-2.711979 -0.762132,-0.903338 -2.053151,-2.062665 -2.464795,-2.389891 -0.177915,-0.141429 -0.378243,-0.263076 -0.433435,-0.264912 -0.657961,-0.02189 -2.701592,0.124495 -3.295092,0.33465 -0.320712,0.113565 -0.886259,0.39187 -1.256771,0.618459 -0.706395,0.432001 -4.8784183,3.453381 -5.2610643,3.810066 -0.121978,0.113702 -0.440303,0.35556 -0.707384,0.537461 -0.267081,0.181901 -0.582346,0.434909 -0.700588,0.56224 -0.118242,0.12733 -0.29292,0.23151 -0.388173,0.23151 -0.09525,0 -0.207454,0.0893 -0.249335,0.198438 -0.04188,0.10914 -0.160946,0.198437 -0.264583,0.198437 -0.10364,0 -0.222703,0.0893 -0.264584,0.198438 -0.04188,0.10914 -0.154114,0.198437 -0.249409,0.198437 -0.09529,0 -0.193101,0.04465 -0.217355,0.09922 -0.06008,0.135191 -1.090303,0.961406 -3.092935,2.480469 -1.701786,1.290862 -3.46656492,2.652421 -3.84451992,2.966116 -0.77345108,0.641951 -0.94091308,0.769792 -1.07417608,0.820042 -0.130146,0.04908 -1.826797,1.570553 -3.080306,2.762279 -0.344397,0.327422 -0.950282,1.261732 -1.467678,1.752865 -0.517395,0.491132 -1.374939,1.488281 -1.461008,1.488281 -0.08607,0 0.01381,-0.948066 -0.101438,-1.055828 -0.35713,-0.333941 -0.900526,-0.784392 -1.279737,-1.060839 -0.199618,-0.145521 -0.7177994,-0.547357 -1.1515127,-0.892969 -0.433715,-0.345612 -0.825635,-0.629126 -0.870931,-0.630033 -0.0453,-0.0011 -0.325544,-0.227576 -0.622774,-0.503709 -0.522152,-0.485089 -0.571341,-0.501589 -1.455208,-0.488095 -1.239719,0.01892 -1.867406,0.39411 -2.104705,1.258035 -0.01,0.03638 -0.112093,0.274506 -0.226893,0.529167 -0.114801,0.254661 -0.402418,0.998802 -0.639152,1.653646 -0.236733,0.654844 -0.538927,1.4444 -0.671541,1.754569 -0.132617,0.310168 -0.248777,0.607824 -0.258136,0.661458 -0.0094,0.05363 -0.0827,0.216577 -0.162975,0.3620981 -0.08028,0.145521 -0.15712,0.330052 -0.170768,0.41007 -0.01365,0.08002 -0.233619,0.67533 -0.488825,1.322916 -0.255207,0.647587 -0.541637,1.400673 -0.636511,1.673524 -0.09487,0.272852 -0.210151,0.496094 -0.256167,0.496094 -0.04602,0 -0.08367,0.08498 -0.08367,0.188839 0,0.103862 -0.183309,0.62476 -0.407353,1.157552 -0.224044,0.532794 -0.545946,1.325901 -0.715338,1.762463 -0.169394,0.436563 -0.338312,0.823516 -0.375375,0.859896 -0.03706,0.03638 0.816877,0.274505 0.604123,0.892969 -0.212751,0.61846295 0.008,-1.331074 -0.507391,1.70150895 -0.133131,0.78332505 1.207333,-0.990666 1.213426,-0.926042 0.02016,0.213918 0.588516,4.54497805 -1.91702,2.63741405 -0.06275,-0.04778 0.06998,-0.539101 -0.419639,0.654283 -0.32879,0.801389 -0.102217,0.779553 -0.186727,0.98438 -0.681452,1.0676838 -0.0082,0.2577323 0.285945,-0.289044 -3.209484,-0.4848625 -3.544325,-0.8856785 -6.930497,-2.64582604 -0.566394,-0.45381151 -1.529791,-0.95416909 -2.393729,-1.61092301 -0.68199,-0.51843995 -0.478962,-0.74082015 -0.807328,0.146788 -0.152866,0.41321177 -0.295544,0.77584164 -0.317775,0.83575 -0.122622,0.33044558 -1.784187,4.74710605 -2.237901,6.63348505 -0.287267,1.194353 -0.761473,3.7816099 -0.869431,4.7435979 -0.03674,0.327422 -0.268701,1.637109 -0.515459,2.910416 -0.465805,2.403616 -0.955003,5.487755 -1.070173,6.746875 -0.06308,0.689573 -0.100538,1.993154 -0.271834,9.458854 -0.04007,1.74625 -0.101174,3.506454 -0.135794,3.911561 -0.05272,2.364979 -0.02217,4.461887 -0.10081,6.605627 -0.04604,0.181901 -0.113781,1.670182 -0.150524,3.307291 -0.03674,1.63711 -0.101407,3.869531 -0.143696,4.960938 -0.04229,1.091406 -0.07362,2.103437 -0.06963,2.248958 0.004,0.145521 -0.05335,0.784363 -0.127418,1.419646 -0.139401,1.195588 -0.527078,2.332567 -1.065157,2.452798 -0.688127,-0.0038 -0.979326,-0.103573 -1.330455,-0.463035 z"
       id="path6609"
       sodipodi:nodetypes="ccssccssssssssssccssssssssscsccccscccccssscccscccccccccsccssssscccccsssssssssssssssssssssssscsscsssssssssssssssssscccssssssssccssssccc"
       inkscape:label="corps" /><path
       style="fill:url(#linearGradient8686);fill-opacity:1;stroke-width:0.0132292;stroke:url(#linearGradient3150);filter:url(#filter3156)"
       d="m 34.224738,-29.142969 0.429948,-0.992188 0.198438,-0.694531 0.165364,-0.595312 -1.852083,-3.307292 c 0,0 -0.264583,-0.694531 -1.091406,-3.175 -0.826823,-2.480469 -2.976563,-2.315104 -4.001823,-1.951302 -1.02526,0.363802 -2.645833,1.785937 -2.678906,4.332552 -0.03307,2.546615 -0.297656,6.515365 -0.03307,8.135937 0.264583,1.620573 2.778125,5.09323 3.704166,6.052344 0.926042,0.959115 0.727605,0.992188 1.554428,1.554427 0.826822,0.56224 2.182812,-0.694531 2.182812,-0.694531 l 0.463021,-1.157552 -0.09922,-3.009636 0.661458,-2.711979 z"
       id="path8052"
       inkscape:label="joue" /><path
       style="fill:#552200;stroke-width:0.0132292;filter:url(#filter5304)"
       d="m 15.009374,-8.5385423 3.836458,6.8791666 1.719792,5.8208332 1.322917,2.778125 2.910416,0.9260416 1.719792,-1.3229166 0.264584,-2.38125 -0.132292,-2.2489583 -0.264584,-2.11666662 -0.264583,-1.45520828 z"
       id="path473"
       inkscape:label="patte_avant_cachée"
       sodipodi:nodetypes="ccccccccccc" /><path
       style="fill:#deaa87;stroke-width:0.013;stroke-dasharray:none;filter:url(#filter4924)"
       d="M -14.094792,17.787499 9.5854158,26.783332 25.724999,8.1302075 4.0291659,1.5156242 Z"
       id="path598"
       inkscape:label="face_6" /><path
       style="fill:#e9c6af;stroke-width:0.0119997;filter:url(#filter4928)"
       d="m -14.093409,17.791496 c 6.6150174,23.07361 6.0835253,22.932142 6.0835253,22.932142 l 21.5649567,8.38051 -3.9690141,-23.75196 z"
       id="path708"
       sodipodi:nodetypes="ccccc"
       inkscape:label="face_2" /><path
       style="fill:#f4e3d7;stroke-width:0.0122434;filter:url(#filter4932)"
       d="M 25.726943,8.13274 29.297651,31.455803 13.421409,48.85138 9.588792,25.356197 Z"
       id="path710"
       sodipodi:nodetypes="ccccc"
       inkscape:label="face_3" /><ellipse
       style="mix-blend-mode:normal;fill:#28170b;stroke:#000000;stroke-width:0.0195571;filter:url(#filter4936)"
       id="path974-5"
       cx="-10.149443"
       cy="28.626019"
       rx="1.5402409"
       ry="2.0486639"
       inkscape:label="point_2.1"
       transform="matrix(0.99025556,-0.13926204,0.13908421,0.99028056,0.09354433,-2.245064)" /><ellipse
       style="mix-blend-mode:normal;fill:#28170b;stroke:#000000;stroke-width:0.0196404;filter:url(#filter4940)"
       id="path974-5-5"
       cx="-5.9296532"
       cy="39.611893"
       rx="1.5410165"
       ry="2.0651379"
       inkscape:label="point_2.2"
       transform="matrix(0.96976829,-0.24402757,0.23983215,0.97081437,1.403165,-0.74835467)" /><ellipse
       style="fill:#28170b;stroke:#000000;stroke-width:0.0203863;filter:url(#filter4944)"
       id="path974-5-4"
       cx="26.397667"
       cy="32.125469"
       rx="1.6650712"
       ry="2.0591791"
       inkscape:label="point_3.3"
       transform="matrix(0.95896192,0.28353488,-0.26795065,0.96343264,0,0)" /><ellipse
       style="mix-blend-mode:normal;fill:#28170b;stroke:#000000;stroke-width:0.0204231;filter:url(#filter4948)"
       id="path974-5-40"
       cx="24.098387"
       cy="25.542742"
       rx="1.6820681"
       ry="2.0457406"
       inkscape:label="point_3.2"
       transform="matrix(0.99018796,0.13974189,-0.13860654,0.99034753,0,0)" /><ellipse
       style="fill:#28170b;stroke:#000000;stroke-width:0.020423;filter:url(#filter4952)"
       id="path974-5-9"
       cx="26.031866"
       cy="15.889615"
       rx="1.6820681"
       ry="2.0457406"
       inkscape:label="point_3.1"
       transform="matrix(0.99018796,0.13974189,-0.13860653,0.99034753,0,0)" /><ellipse
       style="mix-blend-mode:normal;fill:#28170b;stroke:#000000;stroke-width:0.0207385;filter:url(#filter4956)"
       id="path974-5-9-9"
       cx="-14.540424"
       cy="15.517975"
       rx="1.7396307"
       ry="2.0396307"
       inkscape:label="point_6.6"
       transform="rotate(-70,-0.16692463,-0.61462089)" /><ellipse
       style="mix-blend-mode:normal;fill:#28170b;stroke:#000000;stroke-width:0.0207385;filter:url(#filter4960)"
       id="path974-5-9-9-3"
       cx="-14.751571"
       cy="8.5557356"
       rx="1.7396307"
       ry="2.0396307"
       inkscape:label="point_6.5"
       transform="rotate(-70,-0.16692463,-0.61462089)" /><ellipse
       style="mix-blend-mode:normal;fill:#28170b;stroke:#000000;stroke-width:0.0207385;filter:url(#filter4964)"
       id="path974-5-9-9-4"
       cx="14.551425"
       cy="-3.6100438"
       rx="1.7396307"
       ry="2.0396307"
       inkscape:label="point_6.4"
       transform="rotate(120,0.39588438,-0.14561339)" /><ellipse
       style="mix-blend-mode:normal;fill:#28170b;stroke:#000000;stroke-width:0.0207385;filter:url(#filter4968)"
       id="path974-5-9-9-31"
       cx="-5.6159053"
       cy="19.731155"
       rx="1.7396307"
       ry="2.0396307"
       inkscape:label="point_6.3"
       transform="rotate(-70,-0.27377303,-0.88853255)" /><ellipse
       style="mix-blend-mode:normal;fill:#28170b;stroke:#000000;stroke-width:0.0207385;filter:url(#filter4972)"
       id="path974-5-9-9-31-7"
       cx="-6.0249486"
       cy="12.418598"
       rx="1.7396307"
       ry="2.0396307"
       inkscape:label="point_6.2"
       transform="rotate(-70,-0.27377303,-0.88853255)" /><ellipse
       style="mix-blend-mode:normal;fill:#28170b;stroke:#000000;stroke-width:0.0207385;filter:url(#filter4976)"
       id="path974-5-9-9-32"
       cx="6.8704491"
       cy="-4.3863988"
       rx="1.7396307"
       ry="2.0396307"
       inkscape:label="point_6.1"
       transform="rotate(100,0.68062374,-0.14622395)" /><path
       style="fill:#28170b;fill-opacity:1;stroke-width:0.0132292;filter:url(#filter4920)"
       d="m 35.117707,-31.821875 c 0,0 0.347265,-3.075782 -1.719792,-3.439584 -0.594867,-0.104697 -0.695523,0.23813 -0.789622,0.750863 -0.226479,1.234067 1.31489,3.112834 1.847956,3.482471 0.554328,0.384381 0.661458,-0.79375 0.661458,-0.79375 z"
       id="path6882"
       inkscape:label="oeil"
       sodipodi:nodetypes="csssc" /><path
       style="fill:#28170b;fill-opacity:1;stroke-width:0.0132292;stroke:url(#linearGradient3142);filter:url(#filter3152)"
       d="m 34.471609,-31.334209 0.162939,0.0793 0.173357,0.777842 -0.259425,0.630124 -0.605351,2.702046 c 0,0 -0.502021,3.118812 -0.608038,5.369162 -0.101544,2.155414 -0.561555,3.592627 -1.524678,2.918441 l -1.322917,-0.926042 0.79375,-0.396875 c 0,0 1.703742,0 1.836033,-1.587499 0.132292,-1.5875 -0.645407,-2.38125 -0.116241,-4.894792 0.321631,-1.527748 0.791979,-2.558371 1.14813,-2.985036 0.229809,-0.27531 0.322438,-1.686673 0.322438,-1.686673 z"
       id="path6886"
       sodipodi:nodetypes="cccccssccssscc"
       inkscape:label="museau" /><path
       style="fill:#2b1100;fill-opacity:1;stroke-width:0.0132292;filter:url(#filter4916)"
       d="m 28.561001,-20.50267 c -0.198437,-0.314192 -0.314192,-0.23151 -0.264583,-1.322916 0.04757,-1.046476 0.516056,-1.81447 0.516056,-1.81447 -0.170733,0.582138 -0.425529,1.156416 -0.424175,1.782781 0.0014,0.62556 0.01863,0.832905 0.172702,1.354605 z"
       id="path7010"
       sodipodi:nodetypes="cscsc"
       inkscape:label="sourire" /><path
       style="mix-blend-mode:normal;fill:url(#linearGradient8837);fill-opacity:1;stroke-width:0.0132292;filter:url(#filter3180)"
       d="m -43.098225,38.994954 0.778104,9.329385 c 0,0 0.888671,4.443354 1.590254,6.267469 0.701582,1.824116 1.824114,1.543483 1.824114,1.543483 0,0 1.870887,-0.280635 2.104748,-0.748355 0.23386,-0.467722 0.841899,-2.666013 0.420949,-7.436776 -0.420949,-4.77076 -0.63876,-9.74231 -0.63876,-11.472878 0,-1.730571 -6.079409,2.517672 -6.079409,2.517672 z"
       id="path8688"
       inkscape:label="extrémité_queue"
       sodipodi:nodetypes="ccscsssc" /><path
       style="fill:url(#linearGradient8932);fill-opacity:1;stroke-width:0.003125;filter:url(#filter3160)"
       d="m 385.90625,50.954676 c -1.24405,-1.824831 -2.16367,-2.757743 -3.59619,-3.648156 -9.71462,-3.145623 -16.35804,-2.797251 -24.14855,-2.985602 -12.47648,-0.301644 -28.6541,-3.924934 -34.04303,-6.973514 0.2107,-0.253873 12.5682,-1.038318 15.41277,-1.042517 3.40496,-0.005 8.10383,0.196781 16.99464,0.800244 15.05078,3.347844 26.67072,3.454114 29.98686,15.263437 -0.0172,0.193944 -0.12969,-0.714641 -0.60642,-1.413883 z"
       id="path8906"
       transform="matrix(0.26458333,0,0,0.26458333,-60,-60)"
       sodipodi:nodetypes="scscsccss"
       inkscape:label="dessus_oreille" /><path
       style="mix-blend-mode:normal;fill:#28170b;fill-opacity:1;stroke-width:0.0109939;filter:url(#filter3164)"
       d="m 42.024633,-46.420963 c 0,0 -1.882328,-1.060599 -4.704408,0.190171 -1.535544,0.680566 -2.984496,1.207041 -2.930385,1.597858 0.698434,5.044463 0.105042,1.222235 0.303154,2.666792 0.188716,1.376048 0.462744,-0.998145 2.595899,-2.504741 2.098377,-1.482033 1.097281,-1.419779 4.992055,-1.685494 z"
       id="path6888"
       sodipodi:nodetypes="csssscc"
       inkscape:label="fond_oreille" /><path
       style="mix-blend-mode:normal;fill:#38312c;fill-opacity:1;stroke:url(#pattern5147);stroke-width:0;stroke-dasharray:none;filter:url(#filter3176-3)"
       d="m -19.246743,-17.220166 c 2.148819,-0.974864 9.5711988,-0.52614 11.3639266,2.140762 0.9179019,1.365492 -2.1190516,4.857298 -1.83975,7.9650172 -6.4456186,11.1479052 -9.9213316,31.0578228 -15.3260616,16.2417243 1.837411,-4.7530982 3.686573,-6.4463687 4.365625,-11.6107114 0.10026,-0.7625015 -2.704545,-3.1669562 -2.704545,-3.1669562 -0.559895,-5.6601199 1.029737,-7.3704799 4.140805,-11.5698359 z"
       id="path6824-6"
       sodipodi:nodetypes="csccscc"
       inkscape:label="ombre_patte_arrière"
       transform="matrix(0.9769574,0,0,0.98106941,-0.0288028,0.16871433)" /><path
       style="fill:url(#linearGradient7132);fill-opacity:1;stroke:url(#Strips1_1);stroke-width:0;stroke-dasharray:none;filter:url(#filter3176)"
       d="m -20.444792,-16.34375 c 0,0 13.3265021,-2.857249 12.964583,4.497916 l -0.280633,5.7032145 c 0,0 -0.9180168,3.2297969 -1.8360336,5.0124104 -0.8238174,1.59969567 -3.7041664,5.8208333 -3.7041664,5.8208333 0,0 -4.233334,3.8364583 1.455208,4.3656249 5.6885417,0.5291667 7.14375,0.5291667 7.14375,0.5291667 l 1.7197916,0.6614582 c 0,0 5.4239583,4.365625 -1.8520833,4.497917 -7.2760413,0.132291 -15.3458333,-0.529167 -15.3458333,-0.529167 -4.53281,-0.541543 -6.093314,-0.450939 -4.630208,-4.4979165 1.051067,-2.7189488 3.491255,-6.8744622 3.988002,-9.13661525 0.38299,-1.74410785 0.549715,-3.10238785 0.260693,-3.48864375 -1.105033,-1.4767886 -1.604752,-2.0141671 -1.970009,-2.6181444 -0.803477,-1.8087705 -0.662282,-5.8151421 -0.757332,-7.7280041 z"
       id="path6824"
       sodipodi:nodetypes="cscscsccsccssccc"
       inkscape:label="patte_arrière" /><path
       style="fill:#38312c;fill-opacity:1;stroke:#000000;stroke-width:0;stroke-dasharray:none;image-rendering:optimizeQuality;filter:url(#filter5292)"
       d="m 7.4655453,-21.549118 c 17.9060407,19.6215309 24.8816527,18.7037546 1.8470489,9.947326 -3.315856,-1.545284 -5.0949493,-2.311852 -8.216254,-4.139642 -2.2599739,-1.323408 -2.135009,-2.953662 -2.6768111,-6.289732 -0.2739375,-1.686731 0.3353681,-3.598965 0.65731711,-5.245241 3.48521889,-5.204018 5.39303909,2.208471 8.38869909,5.727289 z"
       id="path6880-1"
       sodipodi:nodetypes="ccsscc"
       inkscape:label="ombre_patte_avant" /><path
       style="fill:url(#linearGradient7124);fill-opacity:1;stroke-width:0;stroke-dasharray:none;image-rendering:optimizeQuality;filter:url(#filter5308)"
       d="m 16.403138,-30.676645 c 0,0 -7.4791805,5.469353 -2.187514,11.157894 5.291667,5.688542 12.832292,10.9802087 12.832292,10.9802087 0,0 4.070319,2.3037553 3.175,6.2177082 -0.926313,4.0494463 -3.042709,2.24895834 -3.042709,2.24895834 L 22.020832,-3.908334 c 0,0 -8.059483,-5.7372962 -12.0385412,-6.879167 -3.3158562,-1.545284 -5.0949489,-2.311852 -8.2162536,-4.139642 -3.7509562,-2.196505 -2.36171923,-6.270804 -2.39367153,-10.318897 -0.21212656,-2.602818 1.57240241,-3.86379 3.78214153,-5.342897 4.2050716,-2.814698 13.2486308,-0.08771 13.2486308,-0.08771 z"
       id="path6880"
       sodipodi:nodetypes="cscscccscsc"
       inkscape:label="patte_avant" /></g></svg>
