<?xml version="1.0" encoding="UTF-8" standalone="no"?>
<!-- Created with Inkscape (http://www.inkscape.org/) -->

<svg
   inkscape:version="1.2.2 (732a01da63, 2022-12-09)"
   xml:space="preserve"
   id="svg22"
   version="1.1"
   sodipodi:docname="Renard_vectoriel_versionmaryse.svg"
   viewBox="-60 -60 120 120"
   height="120mm"
   width="120mm"
   xmlns:inkscape="http://www.inkscape.org/namespaces/inkscape"
   xmlns:sodipodi="http://sodipodi.sourceforge.net/DTD/sodipodi-0.dtd"
   xmlns:xlink="http://www.w3.org/1999/xlink"
   xmlns="http://www.w3.org/2000/svg"
   xmlns:svg="http://www.w3.org/2000/svg"
   xmlns:rdf="http://www.w3.org/1999/02/22-rdf-syntax-ns#"
   xmlns:cc="http://creativecommons.org/ns#"
   xmlns:dc="http://purl.org/dc/elements/1.1/"><defs
     id="defs24"><inkscape:path-effect
       effect="perspective-envelope"
       up_left_point="-23.115955,-57.514536"
       up_right_point="-1.8341065,-53.897329"
       down_left_point="-16.557393,-36.157158"
       down_right_point="4.7244465,-32.539937"
       id="path-effect1014"
       is_visible="true"
       lpeversion="1"
       deform_type="perspective"
       horizontal_mirror="false"
       vertical_mirror="false"
       overflow_perspective="false" /><inkscape:path-effect
       effect="perspective-envelope"
       up_left_point="97.366229,-27.579563"
       up_right_point="111.65294,-42.772315"
       down_left_point="118.64808,-23.962356"
       down_right_point="132.93478,-39.155095"
       id="path-effect1012"
       is_visible="true"
       lpeversion="1"
       deform_type="perspective"
       horizontal_mirror="false"
       vertical_mirror="false"
       overflow_perspective="false" /><inkscape:path-effect
       effect="perspective-envelope"
       up_left_point="15.761588,19.834523"
       up_right_point="30.048293,4.641784"
       down_left_point="22.320141,41.191915"
       down_right_point="36.606856,25.999162"
       id="path-effect1010"
       is_visible="true"
       lpeversion="1"
       deform_type="perspective"
       horizontal_mirror="false"
       vertical_mirror="false"
       overflow_perspective="false" /><inkscape:path-effect
       effect="perspective-envelope"
       up_left_point="33.454231,25.71241"
       up_right_point="55.437069,25.71241"
       down_left_point="33.454231,47.698006"
       down_right_point="55.437069,47.698006"
       id="path-effect998"
       is_visible="true"
       lpeversion="1"
       deform_type="perspective"
       horizontal_mirror="false"
       vertical_mirror="false"
       overflow_perspective="false" /><inkscape:path-effect
       effect="perspective-envelope"
       up_left_point="0.04,24.183099"
       up_right_point="22.022838,24.183099"
       down_left_point="0.04,46.168695"
       down_right_point="22.022838,46.168695"
       id="path-effect949"
       is_visible="true"
       lpeversion="1"
       deform_type="envelope_deformation"
       horizontal_mirror="false"
       vertical_mirror="false"
       overflow_perspective="false" /><inkscape:path-effect
       effect="perspective-envelope"
       up_left_point="35.964535,2.1154764"
       up_right_point="57.95093,2.1154764"
       down_left_point="35.964535,24.101871"
       down_right_point="57.95093,24.101871"
       id="path-effect15176"
       is_visible="true"
       lpeversion="1"
       deform_type="perspective"
       horizontal_mirror="false"
       vertical_mirror="false"
       overflow_perspective="false" /><inkscape:path-effect
       effect="envelope"
       id="path-effect15070"
       is_visible="true"
       lpeversion="1"
       yy="false"
       xx="false"
       bendpath1="M 62.70347,-13.794619 76.990185,-28.987371"
       bendpath2="M 57.95093,2.1154764 V 24.101871"
       bendpath3="M 35.964535,24.101871 H 57.95093"
       bendpath4="M 35.964535,2.1154764 V 24.101871"
       bendpath1-nodetypes="cc" /><inkscape:perspective
       sodipodi:type="inkscape:persp3d"
       inkscape:vp_x="7.2582771 : 60 : 1"
       inkscape:vp_y="0 : 1000 : 0"
       inkscape:vp_z="104.71072 : 60 : 1"
       inkscape:persp3d-origin="55.9845 : 40 : 1"
       id="perspective9971" /><pattern
       inkscape:collect="always"
       xlink:href="#Strips1_1"
       id="pattern2693"
       patternTransform="matrix(9.9727828,0,0,10,0.12946337,-0.13229166)" /><pattern
       inkscape:collect="always"
       xlink:href="#Strips1_1-4"
       id="pattern5147"
       patternTransform="matrix(10,0,0,10,-0.23821262,-0.5903701)" /><linearGradient
       inkscape:collect="always"
       id="linearGradient3148"><stop
         style="stop-color:#000000;stop-opacity:1;"
         offset="0"
         id="stop3144" /><stop
         style="stop-color:#000000;stop-opacity:0;"
         offset="1"
         id="stop3146" /></linearGradient><linearGradient
       inkscape:collect="always"
       id="linearGradient3140"><stop
         style="stop-color:#000000;stop-opacity:1;"
         offset="0"
         id="stop3136" /><stop
         style="stop-color:#ffffff;stop-opacity:0;"
         offset="1"
         id="stop3138" /></linearGradient><pattern
       inkscape:collect="always"
       patternUnits="userSpaceOnUse"
       width="2"
       height="1"
       patternTransform="translate(0,0) scale(10,10)"
       id="Strips1_1"
       inkscape:stockid="Stripes 1:1"><rect
         style="fill:black;stroke:none"
         x="0"
         y="-0.5"
         width="1"
         height="2"
         id="rect2037" /></pattern><linearGradient
       inkscape:collect="always"
       id="linearGradient1053"><stop
         style="stop-color:#552200;stop-opacity:1;"
         offset="0"
         id="stop1049" /><stop
         style="stop-color:#38312c;stop-opacity:1;"
         offset="1"
         id="stop1051" /></linearGradient><linearGradient
       inkscape:collect="always"
       id="linearGradient8930"><stop
         style="stop-color:#ffccaa;stop-opacity:1;"
         offset="0"
         id="stop8926" /><stop
         style="stop-color:#f75f00;stop-opacity:1;"
         offset="1"
         id="stop8928" /></linearGradient><linearGradient
       inkscape:collect="always"
       id="linearGradient8835"><stop
         style="stop-color:#ffcab6;stop-opacity:1;"
         offset="0"
         id="stop8831" /><stop
         style="stop-color:#f75f00;stop-opacity:1;"
         offset="1"
         id="stop8833" /></linearGradient><linearGradient
       inkscape:collect="always"
       id="linearGradient8684"><stop
         style="stop-color:#ff883a;stop-opacity:1;"
         offset="0"
         id="stop8680" /><stop
         style="stop-color:#ffb380;stop-opacity:1;"
         offset="0.85930735"
         id="stop8682" /></linearGradient><linearGradient
       inkscape:collect="always"
       id="linearGradient7130"><stop
         style="stop-color:#f75f00;stop-opacity:1;"
         offset="0"
         id="stop7126" /><stop
         style="stop-color:#38312c;stop-opacity:1;"
         offset="1"
         id="stop7128" /></linearGradient><linearGradient
       inkscape:collect="always"
       id="linearGradient7122"><stop
         style="stop-color:#f75f00;stop-opacity:1;"
         offset="0.35312501"
         id="stop7986" /><stop
         style="stop-color:#ff6f0f;stop-opacity:1;"
         offset="0.54447442"
         id="stop7118" /><stop
         style="stop-color:#3b1500;stop-opacity:1;"
         offset="1"
         id="stop7120" /></linearGradient><linearGradient
       inkscape:collect="always"
       xlink:href="#linearGradient7122"
       id="linearGradient7124"
       x1="-0.99354708"
       y1="-23.214239"
       x2="28.638388"
       y2="-4.2965302"
       gradientUnits="userSpaceOnUse" /><linearGradient
       inkscape:collect="always"
       xlink:href="#linearGradient7130"
       id="linearGradient7132"
       x1="-11.998997"
       y1="1.909422"
       x2="-0.50337273"
       y2="13.10447"
       gradientUnits="userSpaceOnUse"
       gradientTransform="matrix(0.99727828,0,0,1,0.12946337,-0.13229166)" /><linearGradient
       inkscape:collect="always"
       xlink:href="#linearGradient8684"
       id="linearGradient8686"
       x1="25.833469"
       y1="-34.87981"
       x2="30.130796"
       y2="-29.191269"
       gradientUnits="userSpaceOnUse"
       gradientTransform="translate(0.21971456,0.28229325)" /><linearGradient
       inkscape:collect="always"
       xlink:href="#linearGradient8835"
       id="linearGradient8837"
       x1="-38.491844"
       y1="49.172001"
       x2="-39.830158"
       y2="39.20953"
       gradientUnits="userSpaceOnUse" /><linearGradient
       inkscape:collect="always"
       xlink:href="#linearGradient8930"
       id="linearGradient8932"
       x1="368.90033"
       y1="36.069923"
       x2="362.65253"
       y2="45.085537"
       gradientUnits="userSpaceOnUse" /><linearGradient
       inkscape:collect="always"
       xlink:href="#linearGradient1053"
       id="linearGradient346"
       gradientUnits="userSpaceOnUse"
       x1="-11.998997"
       y1="1.909422"
       x2="-0.50337273"
       y2="13.10447"
       gradientTransform="rotate(10,-22.328029,-14.086324)" /><linearGradient
       inkscape:collect="always"
       xlink:href="#linearGradient3140"
       id="linearGradient3142"
       x1="33.725269"
       y1="-25.645218"
       x2="32.663296"
       y2="-26.416958"
       gradientUnits="userSpaceOnUse"
       gradientTransform="translate(0.247562,0.212137)" /><linearGradient
       inkscape:collect="always"
       xlink:href="#linearGradient3148"
       id="linearGradient3150"
       x1="25.238158"
       y1="-29.852726"
       x2="35.02559"
       y2="-29.852726"
       gradientUnits="userSpaceOnUse"
       gradientTransform="translate(0.21971456,0.28229325)" /><filter
       inkscape:collect="always"
       style="color-interpolation-filters:sRGB"
       id="filter3160"
       x="-0.0040142698"
       y="-0.015514553"
       width="1.0080155"
       height="1.031029"><feGaussianBlur
         inkscape:collect="always"
         stdDeviation="0.10336324"
         id="feGaussianBlur3162" /></filter><filter
       inkscape:collect="always"
       style="color-interpolation-filters:sRGB"
       id="filter3164"
       x="-0.012160013"
       y="-0.01814843"
       width="1.0251678"
       height="1.0362834"><feGaussianBlur
         inkscape:collect="always"
         stdDeviation="0.03769969"
         id="feGaussianBlur3166" /></filter><filter
       inkscape:collect="always"
       style="color-interpolation-filters:sRGB"
       id="filter3180"
       x="-0.057786424"
       y="-0.019730953"
       width="1.1155302"
       height="1.0394544"><feGaussianBlur
         inkscape:collect="always"
         stdDeviation="0.16236455"
         id="feGaussianBlur3182" /></filter><filter
       inkscape:collect="always"
       style="color-interpolation-filters:sRGB"
       id="filter4916"
       x="-0.30609531"
       y="-0.050447866"
       width="1.611636"
       height="1.1009236"><feGaussianBlur
         inkscape:collect="always"
         stdDeviation="0.064512399"
         id="feGaussianBlur4918" /></filter><pattern
       inkscape:collect="always"
       patternUnits="userSpaceOnUse"
       width="2"
       height="1"
       patternTransform="translate(0,0) scale(10,10)"
       id="Strips1_1-4"
       inkscape:stockid="Stripes 1:1"><rect
         style="fill:black;stroke:none"
         x="0"
         y="-0.5"
         width="1"
         height="2"
         id="rect2037-5" /></pattern><filter
       inkscape:collect="always"
       style="color-interpolation-filters:sRGB"
       id="filter5292"
       x="-0.043184768"
       y="-0.045739824"
       width="1.0863695"
       height="1.0914797"><feGaussianBlur
         inkscape:collect="always"
         stdDeviation="0.45604268"
         id="feGaussianBlur5294" /></filter><filter
       inkscape:collect="always"
       style="color-interpolation-filters:sRGB"
       id="filter2093"
       x="-0.059705734"
       y="-0.032911411"
       width="1.1194115"
       height="1.0658228"><feGaussianBlur
         inkscape:collect="always"
         stdDeviation="0.37138276"
         id="feGaussianBlur2095" /></filter><filter
       inkscape:collect="always"
       style="color-interpolation-filters:sRGB"
       id="filter1145"
       x="-0.18776347"
       y="-0.08093461"
       width="1.3755631"
       height="1.1618649"><feGaussianBlur
         inkscape:collect="always"
         stdDeviation="0.67802064"
         id="feGaussianBlur1147" /></filter><linearGradient
       inkscape:collect="always"
       xlink:href="#linearGradient3148"
       id="linearGradient2621"
       gradientUnits="userSpaceOnUse"
       gradientTransform="matrix(0.90004612,0.13590538,-0.11234361,0.74400614,-0.739728,-10.567139)"
       x1="25.238158"
       y1="-29.852726"
       x2="35.02559"
       y2="-29.852726" /><filter
       inkscape:collect="always"
       style="color-interpolation-filters:sRGB"
       id="filter2624"
       x="-0.33038647"
       y="-0.17039321"
       width="1.6607967"
       height="1.3407919"><feGaussianBlur
         inkscape:collect="always"
         stdDeviation="1.0787888"
         id="feGaussianBlur2626" /></filter><linearGradient
       inkscape:collect="always"
       xlink:href="#linearGradient3148"
       id="linearGradient2775"
       gradientUnits="userSpaceOnUse"
       gradientTransform="matrix(0.90004612,0.13590538,-0.11234361,0.74400614,-12.138209,-5.3612976)"
       x1="25.238158"
       y1="-29.852726"
       x2="35.02559"
       y2="-29.852726" /><filter
       inkscape:collect="always"
       style="color-interpolation-filters:sRGB"
       id="filter2778"
       x="-0.26639986"
       y="-0.12238661"
       width="1.5328338"
       height="1.2447736"><feGaussianBlur
         inkscape:collect="always"
         stdDeviation="0.86941551"
         id="feGaussianBlur2780" /></filter></defs><sodipodi:namedview
     pagecolor="#ffffff"
     bordercolor="#666666"
     borderopacity="1.0"
     inkscape:pageopacity="0.0"
     inkscape:pageshadow="2"
     inkscape:zoom="4.0000001"
     inkscape:cx="263.99999"
     inkscape:cy="143.125"
     inkscape:document-units="mm"
     inkscape:current-layer="Template"
     showgrid="false"
     units="mm"
     showguides="true"
     inkscape:guide-bbox="true"
     inkscape:snap-global="true"
     inkscape:snap-bbox="true"
     inkscape:snap-bbox-midpoints="true"
     inkscape:window-width="2400"
     inkscape:window-height="1321"
     inkscape:window-x="2391"
     inkscape:window-y="-9"
     inkscape:window-maximized="1"
     inkscape:bbox-paths="true"
     inkscape:bbox-nodes="true"
     inkscape:snap-bbox-edge-midpoints="true"
     inkscape:snap-grids="true"
     id="namedview12"
     inkscape:showpageshadow="0"
     inkscape:pagecheckerboard="0"
     inkscape:deskcolor="#d1d1d1"><sodipodi:guide
       orientation="1,0"
       position="226.771653543,226.771653543"
       id="guide2827"
       inkscape:locked="false" /><sodipodi:guide
       orientation="0,1"
       position="226.771653543,226.771653543"
       id="guide2829"
       inkscape:locked="false" /><inkscape:grid
       type="xygrid"
       id="grid3072"
       empspacing="10"
       visible="true"
       enabled="true"
       snapvisiblegridlinesonly="true"
       units="mm"
       dotted="false"
       spacingx="0.1mm"
       spacingy="0.1mm" /></sodipodi:namedview><metadata
     id="metadata2822"><rdf:RDF><cc:Work
         rdf:about=""><dc:format>image/svg+xml</dc:format><dc:type
           rdf:resource="http://purl.org/dc/dcmitype/StillImage" /></cc:Work></rdf:RDF></metadata><g
     inkscape:label="Layer 1"
     inkscape:groupmode="layer"
     id="Template"
     style="fill:none;stroke:black;stroke-width:0.05"><path
       style="mix-blend-mode:normal;fill:url(#linearGradient346);fill-opacity:1;stroke:#000000;stroke-width:0.013;stroke-dasharray:none"
       d="m -20.081404,-15.982433 c 0,0 13.6201976,-0.499718 11.9865659,6.6808579 l -1.2667224,5.5678384 c 0,0 -1.4649175,3.02131706 -2.6785355,4.61743666 -1.089086,1.43233844 -4.658669,5.08918004 -4.658669,5.08918004 0,0 -4.835214,3.0430633 0.675017,4.551995 5.510232,1.508933 6.9433315,1.761627 6.9433315,1.761627 l 1.578803,0.950048 c 0,0 3.8596646,3.276462 -3.1662665,2.611264 -4.491762,0.07426 -7.505264,-1.343605 -12.120933,-1.876284 -4.276363,-0.946252 -8.261046,-1.315092 -6.117417,-5.0465213 2.634863,-4.361825 6.765514,-9.41932304 6.183022,-9.9250295 -0.582492,-0.5057066 -1.786189,-4.3449277 -1.786189,-4.3449277 l 0.765475,-6.2458185 z"
       id="path6824-5"
       sodipodi:nodetypes="cscscscccccsccc"
       inkscape:label="patte_arrière" /><path
       style="fill:#f75f00;fill-opacity:1;stroke-width:0.107;stroke-dasharray:none;opacity:1;stroke:none;stroke-opacity:1"
       d="m -39.772916,55.234824 c -0.583023,-0.719236 -0.920592,-1.604794 -1.271884,-2.450338 -0.109528,-0.485117 -0.516825,-1.735866 -0.690222,-3.009636 -0.20505,-1.506289 -1.310461,-8.953775 -1.462861,-9.855729 -0.139079,-0.823116 -0.217178,-1.510874 -0.338004,-2.976562 -0.04002,-1.322263 -0.11739,-2.237905 -0.182249,-3.265988 -0.062,-0.859462 -0.119818,-4.115186 -0.128474,-7.234944 -0.0087,-3.119755 -0.0476,-5.723839 -0.08654,-5.78685 -0.03894,-0.06301 -0.07759,-2.689698 -0.08589,-5.837089 -0.01331,-5.0483773 0.01226,-5.8316179 0.217019,-6.6485659 0.127655,-0.509323 0.262652,-1.104635 0.299993,-1.322917 0.03734,-0.218281 0.300579,-1.260078 0.584974,-2.315104 0.284395,-1.055026 0.54728,-2.050619 0.584191,-2.21243 0.03691,-0.161811 0.137389,-0.459467 0.223288,-0.661458 0.0859,-0.201991 0.165184,-0.426789 0.17619,-0.499549 0.02297,-0.151826 0.04569,-0.22348604 0.440529,-1.38906305 0.160209,-0.472943 0.157753,-0.40740551 0.325273,-1.01191495 0.231966,-0.4731148 0.477346,-0.8020702 0.729302,-1.170897 0.212326,-0.2926961 0.694019,-0.932657 1.070429,-1.5875 0.376409,-0.654844 0.773581,-1.339453 0.882603,-1.521355 0.109023,-0.181901 0.368063,-0.695809 0.575645,-1.142015 0.207582,-0.446209 0.432493,-0.845325 0.499801,-0.886923 0.06731,-0.0416 0.293429,-0.480193 0.502491,-0.974651 0.209062,-0.494456 0.452749,-0.973156 0.541527,-1.063771 0.08878,-0.09062 0.35644,-0.5073361 0.594805,-0.9260411 0.515319,-0.905198 1.19167,-1.867136 1.681469,-2.391469 0.648275,-0.693978 1.062334,-1.642552 1.285037,-2.943907 0.117348,-0.685708 0.215341,-1.33604 0.217765,-1.445181 0.01037,-0.467836 0.383273,-2.78193 0.575567,-3.571875 0.115128,-0.472943 0.209327,-0.962903 0.209333,-1.0888 0.255561,-0.916091 0.363363,-1.465892 0.601679,-2.218492 0.04744,-0.10914 0.09139,-0.238125 0.09768,-0.286631 0.204695,-0.508381 0.289632,-0.882444 0.474447,-1.269629 0.145521,-0.301194 0.235496,-0.607894 0.264583,-0.666369 0.148828,-0.299196 0.902756,-1.800678 1.24415,-2.341433 0.402652,-0.497071 0.599511,-0.842538 1.004809,-1.527127 0.284535,-0.414565 0.417848,-0.636558 0.661458,-1.018136 0.293086,-0.343582 0.473637,-0.560217 0.648634,-0.828174 1.28886,-1.47057 2.688784,-2.866799 3.915105,-3.96875 0.420066,-0.327422 1.038466,-0.846635 1.374228,-1.153806 0.335759,-0.307172 0.657608,-0.56018 0.715221,-0.56224 0.05761,-0.0021 0.236207,-0.129033 0.396875,-0.28216 0.160669,-0.153128 0.440952,-0.374941 0.622853,-0.492918 0.432858,-0.314861 0.898219,-0.659574 1.129922,-0.849241 0.452609,-0.345567 0.880668,-0.644092 1.224029,-0.960573 0.196916,-0.182703 0.715216,-0.552182 1.151779,-0.821064 0.436562,-0.268882 0.853281,-0.537286 0.926041,-0.596453 0.704018,-0.438584 1.188316,-0.762022 1.817124,-1.150942 0.62189,-0.424395 0.848992,-0.599316 1.723425,-1.054589 2.9024571,-1.653155 5.7791321,-2.918665 8.3783777,-4.246845 0.9506792,-0.403815 1.4062121,-0.593985 2.170127,-0.859892 2.3569449,-0.613862 4.763378,-1.119576 6.879166,-1.227237 8.3495833,0.06611 16.2179253,-0.292104 22.9783403,0.221652 3.743798,0.609002 3.614349,0.573753 4.738828,0.609599 3.156141,0.699009 5.254662,0.04438 7.894094,1.615964 0.198438,0.286754 0.338729,0.416358 0.363577,0.488794 0.138784,0.404589 0.604514,0.719167 0.701906,1.251508 -1.944065,-0.07994 -5.45996,-1.539972 -7.140004,2.470055 -0.799436,2.858182 0.177148,4.869885 0.195813,5.087038 0.253008,2.943574 0.09564,1.324654 0.09126,2.943489 -0.0087,3.22255 -0.0088,3.222944 -0.969698,6.052192 -0.614243,1.808517 -0.892622,3.483072 -1.011645,6.085413 -0.129117,2.82306 -0.480124,3.063359 -0.8121,3.395337 -0.207804,0.207807 -0.748949,0.25916 -0.408687,0.758894 -1.127367,-0.28104 -2.933219,-0.775359 -3.088508,-0.813864 -0.106862,-0.02662 -0.506159,-0.09425 -0.580573,-0.344505 -0.09689,0.127724 -0.456757,-0.42526 -0.713376,-0.721533 -0.534467,-0.653924 -0.895395,-1.161622 -1.317241,-1.770732 -0.374357,-0.442346 -1.091221,-1.184897 -2.125877,-2.421824 -1.034656,-1.236927 -2.056982,-2.457318 -2.271834,-2.711979 -0.762132,-0.903338 -2.053151,-2.062665 -2.464795,-2.389891 -0.177915,-0.141429 -0.378243,-0.263076 -0.433435,-0.264912 -0.657961,-0.02189 -2.701592,0.124495 -3.295092,0.33465 -0.320712,0.113565 -0.886259,0.39187 -1.256771,0.618459 -0.706395,0.432001 -4.8784183,3.453381 -5.2610643,3.810066 -0.121978,0.113702 -0.440303,0.35556 -0.707384,0.537461 -0.267081,0.181901 -0.582346,0.434909 -0.700588,0.56224 -0.118242,0.12733 -0.29292,0.23151 -0.388173,0.23151 -0.09525,0 -0.207454,0.0893 -0.249335,0.198438 -0.04188,0.10914 -0.160946,0.198437 -0.264583,0.198437 -0.10364,0 -0.222703,0.0893 -0.264584,0.198438 -0.04188,0.10914 -0.154114,0.198437 -0.249409,0.198437 -0.09529,0 -0.193101,0.04465 -0.217355,0.09922 -0.06008,0.135191 -1.090303,0.961406 -3.092935,2.480469 -1.701786,1.290862 -3.46656492,2.652421 -3.84451992,2.966116 -0.77345108,0.641951 -0.94091308,0.769792 -1.07417608,0.820042 -0.130146,0.04908 -1.826797,1.570553 -3.080306,2.762279 -0.344397,0.327422 -0.950282,1.261732 -1.467678,1.752865 -0.517395,0.491132 -1.374939,1.488281 -1.461008,1.488281 -0.08607,0 0.01381,-0.948066 -0.101438,-1.055828 -0.35713,-0.333941 -0.900526,-0.784392 -1.279737,-1.060839 -0.199618,-0.145521 -0.7177994,-0.547357 -1.1515127,-0.892969 -0.433715,-0.345612 -0.825635,-0.629126 -0.870931,-0.630033 -0.0453,-0.0011 -0.325544,-0.227576 -0.622774,-0.503709 -0.522152,-0.485089 -0.571341,-0.501589 -1.455208,-0.488095 -1.239719,0.01892 -1.867406,0.39411 -2.104705,1.258035 -0.01,0.03638 -0.112093,0.274506 -0.226893,0.529167 -0.114801,0.254661 -0.402418,0.998802 -0.639152,1.653646 -0.236733,0.654844 -0.538927,1.4444 -0.671541,1.754569 -0.132617,0.310168 -0.248777,0.607824 -0.258136,0.661458 -0.0094,0.05363 -0.0827,0.216577 -0.162975,0.3620981 -0.08028,0.145521 -0.15712,0.330052 -0.170768,0.41007 -0.01365,0.08002 -0.233619,0.67533 -0.488825,1.322916 -0.255207,0.647587 -0.541637,1.400673 -0.636511,1.673524 -0.09487,0.272852 -0.210151,0.496094 -0.256167,0.496094 -0.04602,0 -0.08367,0.08498 -0.08367,0.188839 0,0.103862 -0.183309,0.62476 -0.407353,1.157552 -0.224044,0.532794 -0.545946,1.325901 -0.715338,1.762463 -0.169394,0.436563 -0.338312,0.823516 -0.375375,0.859896 -0.03706,0.03638 0.816877,0.274505 0.604123,0.892969 -0.212751,0.61846295 0.008,-1.331074 -0.507391,1.70150895 -0.133131,0.78332505 1.207333,-0.990666 1.213426,-0.926042 0.02016,0.213918 0.588516,4.54497805 -1.91702,2.63741405 -0.06275,-0.04778 0.06998,-0.539101 -0.419639,0.654283 -0.32879,0.801389 -0.102217,0.779553 -0.186727,0.98438 -0.681452,1.0676838 -0.0082,0.2577323 0.285945,-0.289044 -3.209484,-0.4848625 -3.544325,-0.8856785 -6.930497,-2.64582604 -0.566394,-0.45381151 -1.529791,-0.95416909 -2.393729,-1.61092301 -0.68199,-0.51843995 -0.478962,-0.74082015 -0.807328,0.146788 -0.152866,0.41321177 -0.295544,0.77584164 -0.317775,0.83575 -0.122622,0.33044558 -1.784187,4.74710605 -2.237901,6.63348505 -0.287267,1.194353 -0.761473,3.7816099 -0.869431,4.7435979 -0.03674,0.327422 -0.268701,1.637109 -0.515459,2.910416 -0.465805,2.403616 -0.955003,5.487755 -1.070173,6.746875 -0.06308,0.689573 -0.100538,1.993154 -0.271834,9.458854 -0.04007,1.74625 -0.101174,3.506454 -0.135794,3.911561 -0.05272,2.364979 -0.02217,4.461887 -0.10081,6.605627 -0.04604,0.181901 -0.113781,1.670182 -0.150524,3.307291 -0.03674,1.63711 -0.101407,3.869531 -0.143696,4.960938 -0.04229,1.091406 -0.07362,2.103437 -0.06963,2.248958 0.004,0.145521 -0.05335,0.784363 -0.127418,1.419646 -0.139401,1.195588 -0.527078,2.332567 -1.065157,2.452798 -0.688127,-0.0038 -0.979326,-0.103573 -1.330455,-0.463035 z"
       id="path6609"
       sodipodi:nodetypes="ccssccssssssssssccssssssssscsccccscccccssscccscccccccccsccssssscccccsssssssssssssssssssssssscsscsssssssssssssssssscccssssssssccssssccc"
       inkscape:label="corps" /><path
       style="mix-blend-mode:normal;fill:url(#linearGradient8686);fill-opacity:1;stroke:url(#linearGradient3150);stroke-width:0.0132292;filter:url(#filter1145)"
       d="m 34.166349,-29.099118 -0.342941,-1.060923 0.233252,-0.40888 -0.109223,-0.512227 -0.561307,-3.368851 c 0,0 -0.264583,-0.694531 -1.091406,-3.175 -0.826823,-2.480469 -2.976563,-2.315104 -4.001823,-1.951302 -1.02526,0.363802 -2.645833,1.785937 -2.678906,4.332552 -0.03307,2.546615 -0.297656,6.515365 -0.03307,8.135937 0.264583,1.620573 2.778125,5.09323 3.704166,6.052344 0.926042,0.959115 1.020027,0.723592 1.84685,1.285832 0.826822,0.562239 1.89039,-0.425936 1.89039,-0.425936 l -0.269331,-1.442683 -0.173917,-2.906406 1.127328,-3.129301 z"
       id="path8052"
       inkscape:label="joue"
       sodipodi:nodetypes="cccccssssssccccc"
       transform="matrix(0.98489754,0,0,1.0071028,0.31792443,-0.42793116)" /><path
       style="fill:#552200;stroke-width:0.0132292"
       d="m 15.009374,-8.5385423 3.836458,6.8791666 1.719792,5.8208332 1.322917,2.778125 2.910416,0.9260416 1.719792,-1.3229166 0.264584,-2.38125 -0.132292,-2.2489583 -0.264584,-2.11666662 -0.264583,-1.45520828 z"
       id="path473"
       inkscape:label="patte_avant_cachée"
       sodipodi:nodetypes="ccccccccccc" /><path
       style="fill:#ffb380;fill-opacity:1;stroke:none;stroke-width:0.107"
       d="m 33.489515,-33.829506 1.311123,2.747083 -0.15086,0.65754 -0.04471,0.303614 -0.131046,0.521161 -0.30767,0.500991 -0.127622,0.395444 -0.327311,0.603871 -0.337947,1.108747 0.268198,1.138678 -0.607555,1.05072 0.116514,1.099066 0.210934,1.361348 0.0033,0.785669 v 0 l -0.07999,0.418997 -0.102629,0.251137 -0.149466,0.261549 -0.382482,0.504531 -0.435694,0.293743 -0.685794,-0.142461 -0.677488,-2.494162 0.198438,-2.447396 1.124479,-4.365625 z"
       id="path1322"
       sodipodi:nodetypes="ccccccccccccccccccccccccc" /><path
       style="mix-blend-mode:normal;fill:#ffb380;fill-opacity:1;stroke:url(#linearGradient2621);stroke-width:0.0109484;filter:url(#filter2624)"
       d="m 31.83435,-28.151079 0.168973,-0.554373 0.170914,-0.569809 0.389182,-0.786158 0.450107,-1.839265 c 0,0 -0.160111,-0.552694 -0.625625,-2.510548 -0.465513,-1.957854 -2.418956,-2.126983 -3.382609,-1.995649 -0.963652,0.131332 -2.582011,0.969165 -2.897873,2.859366 -0.315859,1.890204 -0.999864,4.807019 -0.943783,6.048693 0.05607,1.241674 1.928248,4.166957 2.653977,5.006397 0.72573,0.839442 0.702501,0.923591 1.517796,1.207665 0.763695,0.266095 1.650071,-0.300956 1.650071,-0.300956 l 0.01889,-0.869002 0.169983,-2.18602 0.278691,-2.49085 z"
       id="path8052-9"
       inkscape:label="joue"
       sodipodi:nodetypes="cccccssssssccccc" /><path
       style="mix-blend-mode:normal;fill:#ffb380;fill-opacity:1;stroke:url(#linearGradient2775);stroke-width:0.0109484;filter:url(#filter2778)"
       d="m 20.435869,-22.945237 0.168973,-0.554373 0.170914,-0.569809 0.389182,-0.786158 0.450107,-1.839265 c 0,0 -1.515898,-3.622289 -1.981412,-5.580143 -0.465513,-1.957854 -1.063169,0.942612 -2.026822,1.073946 -0.963652,0.131332 -2.582011,0.969165 -2.897873,2.859366 -0.315859,1.890204 -0.999864,4.807019 -0.943783,6.048693 0.05607,1.241674 1.928248,4.166957 2.653977,5.006397 0.72573,0.839442 0.836781,0.676984 1.517796,1.207665 0.681013,0.530678 1.74929,-0.05999 1.74929,-0.05999 l -0.08033,-1.109968 0.169983,-2.18602 0.278691,-2.49085 z"
       id="path8052-9-4"
       inkscape:label="joue"
       sodipodi:nodetypes="cccccssssssccccc"
       transform="matrix(0.39141254,0.15451109,-0.05651628,0.10414482,23.050237,-21.030987)" /><path
       style="fill:#28170b;fill-opacity:1;stroke-width:0.0132292"
       d="m 35.117707,-31.821875 c 0,0 0.347265,-3.075782 -1.719792,-3.439584 -0.594867,-0.104697 -0.695523,0.23813 -0.789622,0.750863 -0.226479,1.234067 1.31489,3.112834 1.847956,3.482471 0.554328,0.384381 0.661458,-0.79375 0.661458,-0.79375 z"
       id="path6882"
       inkscape:label="oeil"
       sodipodi:nodetypes="csssc" /><path
       style="fill:#28170b;fill-opacity:1;stroke:url(#linearGradient3142);stroke-width:0.0132292"
       d="m 34.719171,-31.122072 0.155178,0.0587 0.106704,0.651677 -0.185011,0.776885 -0.605351,2.702046 c 0,0 -0.502021,3.118812 -0.608038,5.369162 -0.101544,2.155414 -0.561555,3.592627 -1.524678,2.918441 l -1.333961,-1.108949 0.804794,-0.213968 c 0,0 1.625621,-0.006 1.757912,-1.59352 0.132292,-1.5875 -0.567286,-2.375229 -0.03812,-4.888771 0.321631,-1.527748 0.746457,-2.614211 1.102608,-3.040876 0.229809,-0.27531 0.36796,-1.630833 0.36796,-1.630833 z"
       id="path6886"
       sodipodi:nodetypes="cccccssccssscc"
       inkscape:label="museau" /><path
       style="fill:#2b1100;fill-opacity:1;stroke-width:0.0132292;filter:url(#filter4916)"
       d="m 28.561001,-20.50267 c -0.198437,-0.314192 -0.314192,-0.23151 -0.264583,-1.322916 0.04757,-1.046476 0.516056,-1.81447 0.516056,-1.81447 -0.170733,0.582138 -0.425529,1.156416 -0.424175,1.782781 0.0014,0.62556 0.01863,0.832905 0.172702,1.354605 z"
       id="path7010"
       sodipodi:nodetypes="cscsc"
       inkscape:label="sourire" /><path
       style="mix-blend-mode:normal;fill:url(#linearGradient8837);fill-opacity:1;stroke-width:0.0132292;filter:url(#filter3180)"
       d="m -43.098225,38.994954 0.778104,9.329385 c 0,0 0.888671,4.443354 1.590254,6.267469 0.701582,1.824116 1.824114,1.543483 1.824114,1.543483 0,0 1.870887,-0.280635 2.104748,-0.748355 0.23386,-0.467722 0.841899,-2.666013 0.420949,-7.436776 -0.420949,-4.77076 -0.63876,-9.74231 -0.63876,-11.472878 0,-1.730571 -6.079409,2.517672 -6.079409,2.517672 z"
       id="path8688"
       inkscape:label="extrémité_queue"
       sodipodi:nodetypes="ccscsssc" /><path
       style="fill:url(#linearGradient8932);fill-opacity:1;stroke-width:0.003125;filter:url(#filter3160)"
       d="m 385.90625,50.954676 c -1.24405,-1.824831 -2.16367,-2.757743 -3.59619,-3.648156 -9.71462,-3.145623 -16.35804,-2.797251 -24.14855,-2.985602 -12.47648,-0.301644 -28.6541,-3.924934 -34.04303,-6.973514 0.2107,-0.253873 12.5682,-1.038318 15.41277,-1.042517 3.40496,-0.005 8.10383,0.196781 16.99464,0.800244 15.05078,3.347844 26.67072,3.454114 29.98686,15.263437 -0.0172,0.193944 -0.12969,-0.714641 -0.60642,-1.413883 z"
       id="path8906"
       transform="matrix(0.26458333,0,0,0.26458333,-60,-60)"
       sodipodi:nodetypes="scscsccss"
       inkscape:label="dessus_oreille" /><path
       style="mix-blend-mode:normal;fill:#28170b;fill-opacity:1;stroke-width:0.0109939;filter:url(#filter3164)"
       d="m 42.024633,-46.420963 c 0,0 -1.882328,-1.060599 -4.704408,0.190171 -1.535544,0.680566 -2.984496,1.207041 -2.930385,1.597858 0.698434,5.044463 0.105042,1.222235 0.303154,2.666792 0.188716,1.376048 0.462744,-0.998145 2.595899,-2.504741 2.098377,-1.482033 1.097281,-1.419779 4.992055,-1.685494 z"
       id="path6888"
       sodipodi:nodetypes="csssscc"
       inkscape:label="fond_oreille" /><path
       style="mix-blend-mode:normal;fill:#38312c;fill-opacity:1;stroke:url(#pattern5147);stroke-width:0;stroke-dasharray:none;filter:url(#filter2093)"
       d="m -20.509949,-16.074383 c 2.148819,-0.974864 10.8344048,-1.671923 12.6271326,0.994979 0.9179019,1.365492 -2.1190516,4.857298 -1.83975,7.9650172 C -16.168185,4.0335184 -16.295894,18.68466 -21.700624,3.868562 c 1.642211,-4.9735033 1.073544,-2.1949277 1.483863,-6.8543298 0.06753,-0.7668702 -1.785913,-2.8645937 -1.785913,-2.8645937 -0.559895,-5.6601205 -1.618343,-6.0246655 1.492725,-10.2240215 z"
       id="path6824-6"
       sodipodi:nodetypes="csccscc"
       inkscape:label="ombre_patte_arrière"
       transform="matrix(1.0045621,-0.0117431,0.01064624,0.91073098,-0.48522669,0.0593124)" /><path
       style="fill:#38312c;fill-opacity:1;stroke:#000000;stroke-width:0;stroke-dasharray:none;filter:url(#filter5292);image-rendering:optimizeQuality"
       d="m 7.597837,-21.747555 c 17.906041,19.6215304 24.881653,18.7037541 1.8470489,9.947326 -3.315856,-1.545284 -9.63626811,-5.178656 -10.39906644,-6.256309 -0.69312446,-0.979221 -0.11862456,-2.189511 -0.0971237,-6.091294 0.01041,-1.889144 0.33536805,-3.003652 0.92190035,-4.385345 4.94042715,-4.21183 4.73158085,3.266804 7.72724085,6.785622 z"
       id="path6880-1"
       sodipodi:nodetypes="ccsscc"
       inkscape:label="ombre_patte_avant" /><path
       style="fill:url(#linearGradient7124);fill-opacity:1;stroke-width:0;stroke-dasharray:none;image-rendering:optimizeQuality"
       d="m 16.403138,-30.676645 c 0,0 -7.4791805,5.469353 -2.187514,11.157894 5.291667,5.688542 12.832292,10.9802087 12.832292,10.9802087 0,0 4.070319,2.3037553 3.175,6.2177082 -0.926313,4.0494463 -3.042709,2.24895834 -3.042709,2.24895834 L 22.020832,-3.908334 c 0,0 -8.059483,-5.7372962 -12.0385412,-6.879167 -3.3158562,-1.545284 -5.0949489,-2.311852 -8.2162536,-4.139642 -3.7509562,-2.196505 -2.22942757,-5.609346 -2.26137987,-9.657439 0.18474843,-2.536672 1.44011075,-4.525248 3.64984987,-6.004355 4.2050716,-2.814698 13.2486308,-0.08771 13.2486308,-0.08771 z"
       id="path6880"
       sodipodi:nodetypes="cscscccscscc"
       inkscape:label="patte_avant" /><g
       id="g1062"
       transform="translate(4.4979165,-2.6599263)"><g
         inkscape:label="cube:x-50.00:z-10.00:y-25.00:x-5.00:z-10.00:y0.00"
         transform="matrix(0.264583,0,0,0.264583,5.814687,21.856594)"
         id="g13632"
         style="stroke-width:0;stroke-dasharray:none;stroke-dashoffset:0"><path
           inkscape:label="Face:0"
           style="fill:#d40000;fill-opacity:1;stroke:#000000;stroke-width:0;stroke-linejoin:round;stroke-dasharray:none;stroke-dashoffset:0;stroke-opacity:1"
           d="M 54.8221,-62.2355 -25.6133,-75.9069 -79.6104,-18.4854 0.825036,-4.81405 Z"
           id="path13626" /><path
           inkscape:label="Face:1"
           style="fill:#860000;fill-opacity:1;stroke:#000000;stroke-width:0;stroke-linejoin:round;stroke-dasharray:none;stroke-dashoffset:0;stroke-opacity:1"
           d="M 54.8221,-62.2355 0.825036,-4.81405 25.6133,75.9069 79.6104,18.4854 Z"
           id="path13628" /><path
           inkscape:label="Face:5"
           style="fill:#a80000;fill-opacity:1;stroke:#000000;stroke-width:0;stroke-linejoin:round;stroke-dasharray:none;stroke-dashoffset:0;stroke-opacity:1"
           d="M -79.6104,-18.4854 -54.8221,62.2355 25.6133,75.9069 0.825036,-4.81405 Z"
           id="path13630" /></g><g
         id="g9488"
         transform="translate(-112.6151,44.545234)"
         inkscape:path-effect="#path-effect1012"><path
           id="rect7608"
           d="m 97.366229,-27.579563 14.286711,-15.192752 21.28184,3.61722 -14.2867,15.192739 z"
           style="fill:#deaa87;fill-opacity:1;stroke-width:0.0136051"
           inkscape:original-d="M 35.964535,2.1154764 H 57.95093 V 24.101871 H 35.964535 Z" /><path
           id="path8728-0-4-69"
           d="m 120.19681,-38.363997 c 1.06917,0.181725 1.35406,0.94779 0.63631,1.711055 -0.71774,0.763265 -2.16633,1.234697 -3.2355,1.052972 -1.06917,-0.181724 -1.35406,-0.94779 -0.63632,-1.711055 0.71775,-0.763265 2.16634,-1.234696 3.23551,-1.052972 z"
           style="fill:#28170b;fill-opacity:1;stroke:#000000;stroke-width:0.0132292"
           inkscape:original-d="m 54.262447,13.418308 c 0,1.10457 -0.89543,2 -2,2 -1.104569,0 -2,-0.89543 -2,-2 0,-1.104569 0.895431,-2 2,-2 1.10457,0 2,0.895431 2,2 z" /><path
           id="path8728-0-4-69-3"
           d="m 113.75845,-39.458307 c 1.06917,0.181724 1.35406,0.947789 0.63631,1.711055 -0.71774,0.763264 -2.16633,1.234696 -3.2355,1.052972 -1.06918,-0.181725 -1.35406,-0.947791 -0.63632,-1.711055 0.71775,-0.763266 2.16633,-1.234697 3.23551,-1.052972 z"
           style="fill:#28170b;fill-opacity:1;stroke:#000000;stroke-width:0.0132292"
           inkscape:original-d="m 54.262447,6.7668018 c 0,1.1045695 -0.89543,2 -2,2 -1.104569,0 -2,-0.8954305 -2,-2 0,-1.1045695 0.895431,-2 2,-2 1.10457,0 2,0.8954305 2,2 z" /><path
           id="path8728-0-4-69-0"
           d="m 106.88142,-32.145145 c 1.06917,0.181724 1.35406,0.94779 0.63631,1.711055 -0.71774,0.763265 -2.16633,1.234696 -3.2355,1.052972 -1.06918,-0.181724 -1.35407,-0.947789 -0.63632,-1.711054 0.71775,-0.763265 2.16633,-1.234697 3.23551,-1.052973 z"
           style="fill:#28170b;fill-opacity:1;stroke:#000000;stroke-width:0.0132292"
           inkscape:original-d="m 43.679104,6.7668018 c 0,1.1045695 -0.895431,2 -2,2 -1.10457,0 -2,-0.8954305 -2,-2 0,-1.1045695 0.89543,-2 2,-2 1.104569,0 2,0.8954305 2,2 z" /><path
           id="path8728-0-4-69-6"
           d="m 126.63517,-37.269686 c 1.06917,0.181724 1.35406,0.947789 0.63631,1.711054 -0.71774,0.763264 -2.16633,1.234696 -3.2355,1.052972 -1.06918,-0.181724 -1.35406,-0.94779 -0.63632,-1.711054 0.71775,-0.763265 2.16633,-1.234697 3.23551,-1.052972 z"
           style="fill:#28170b;fill-opacity:1;stroke:#000000;stroke-width:0.0132292"
           inkscape:original-d="m 54.262447,20.069815 c 0,1.104569 -0.89543,2 -2,2 -1.104569,0 -2,-0.895431 -2,-2 0,-1.10457 0.895431,-2 2,-2 1.10457,0 2,0.89543 2,2 z" /><path
           id="path8728-0-4-69-8"
           d="m 119.75814,-29.956527 c 1.06917,0.181724 1.35406,0.947789 0.63631,1.711053 -0.71774,0.763265 -2.16633,1.234696 -3.2355,1.052972 -1.06917,-0.181724 -1.35406,-0.947788 -0.63632,-1.711053 0.71775,-0.763264 2.16633,-1.234697 3.23551,-1.052972 z"
           style="fill:#28170b;fill-opacity:1;stroke:#000000;stroke-width:0.0132292"
           inkscape:original-d="m 43.679104,20.069815 c 0,1.104569 -0.895431,2 -2,2 -1.10457,0 -2,-0.895431 -2,-2 0,-1.10457 0.89543,-2 2,-2 1.104569,0 2,0.89543 2,2 z" /><path
           id="path8728-0-4-8"
           d="m 113.31978,-31.050836 c 1.06917,0.181724 1.35406,0.94779 0.63631,1.711054 -0.71774,0.763265 -2.16633,1.234697 -3.2355,1.052973 -1.06917,-0.181725 -1.35406,-0.947789 -0.63632,-1.711055 0.71775,-0.763264 2.16634,-1.234696 3.23551,-1.052972 z"
           style="fill:#28170b;fill-opacity:1;stroke:#000000;stroke-width:0.0132292"
           inkscape:original-d="m 43.679104,13.418308 c 0,1.10457 -0.895431,2 -2,2 -1.10457,0 -2,-0.89543 -2,-2 0,-1.104569 0.89543,-2 2,-2 1.104569,0 2,0.895431 2,2 z" /></g><g
         id="g15182"
         transform="translate(7.867084,74.480207)"
         inkscape:path-effect="#path-effect1014"><path
           style="fill:#f4e3d7;fill-opacity:1;stroke:#000000;stroke-width:0.0144043"
           id="rect7606"
           width="21.985596"
           height="21.985596"
           x="-48.370922"
           y="-57.251926"
           inkscape:transform-center-x="-4.204216"
           inkscape:transform-center-y="-0.12740049"
           d="m -23.115955,-57.514536 21.2818485,3.617207 6.558553,21.357392 -21.2818395,-3.617221 z"
           sodipodi:type="rect" /><circle
           style="fill:#28170b;fill-opacity:1;stroke:#000000;stroke-width:0.0132292"
           id="path8728-0-4"
           cx="-37.378124"
           cy="-46.259125"
           r="2"
           inkscape:transform-center-x="-4.1672745"
           inkscape:transform-center-y="-0.16434201"
           d="m -7.2597731,-44.69818 c 0.3295058,1.073007 -0.2701451,1.79553 -1.3393577,1.613799 -1.0692125,-0.181731 -2.2030972,-1.198898 -2.5326032,-2.271906 -0.329506,-1.073007 0.270144,-1.79553 1.339357,-1.613799 1.0692126,0.181731 2.2030981,1.198898 2.5326039,2.271906 z" /><circle
           style="fill:#28170b;fill-opacity:1;stroke:#000000;stroke-width:0.0132292"
           id="path8728-0-4-7"
           cx="-43.727726"
           cy="-39.914104"
           r="2"
           inkscape:transform-center-x="-4.1672745"
           inkscape:transform-center-y="-0.16434201"
           d="m -11.513333,-39.579141 c 0.329506,1.073007 -0.270144,1.795529 -1.339356,1.613798 -1.069212,-0.181731 -2.203097,-1.198897 -2.532603,-2.271905 -0.329506,-1.073007 0.270145,-1.795529 1.339357,-1.613798 1.069212,0.181731 2.203097,1.198898 2.532602,2.271905 z" /><circle
           style="fill:#28170b;fill-opacity:1;stroke:#000000;stroke-width:0.0132292"
           id="path8728-0-4-7-6"
           cx="-31.030575"
           cy="-52.606678"
           r="2"
           inkscape:transform-center-x="-4.1672745"
           inkscape:transform-center-y="-0.16434201"
           d="m -3.0089523,-49.820022 c 0.3295058,1.073008 -0.2701456,1.795531 -1.3393588,1.6138 -1.0692131,-0.181731 -2.2030988,-1.198898 -2.5326047,-2.271906 -0.3295059,-1.073008 0.2701452,-1.795532 1.3393584,-1.613801 1.0692133,0.181731 2.2030993,1.198898 2.5326051,2.271907 z" /></g><a
         id="a947"
         transform="translate(-9.7286105,0.74835471)"
         inkscape:path-effect="#path-effect1010"><g
           id="g9911"
           transform="translate(-33.414231,-1.5293111)"><path
             id="rect7606-0"
             inkscape:transform-center-x="-4.204216"
             inkscape:transform-center-y="-0.12740049"
             d="M 49.175819,21.363834 63.462524,6.1710951 70.021087,27.528473 55.734372,42.721226 Z"
             style="fill:#e9c6af;fill-opacity:1;stroke:#000000;stroke-width:0.0144043"
             inkscape:original-d="M 33.456988,25.71241 H 55.437069 V 47.698006 H 33.456988 Z" /><path
             id="path8728-0-4-7-2"
             inkscape:transform-center-x="-4.1672745"
             inkscape:transform-center-y="-0.16434201"
             d="m 59.03563,31.857392 c 0.329506,1.073008 0.01468,2.561703 -0.703183,3.325091 -0.717863,0.763389 -1.566923,0.512392 -1.896429,-0.560616 -0.329506,-1.073009 -0.01468,-2.561702 0.703183,-3.325091 0.717863,-0.763388 1.566923,-0.512392 1.896429,0.560616 z"
             style="fill:#28170b;fill-opacity:1;stroke:#000000;stroke-width:0.0132292"
             inkscape:original-d="m 41.154795,41.991898 c 0,1.104569 -0.895318,2 -1.999749,2 -1.104431,0 -1.999749,-0.895431 -1.999749,-2 0,-1.10457 0.895318,-2 1.999749,-2 1.104431,0 1.999749,0.89543 1.999749,2 z" /><path
             id="path8728-0-4-7-6-6"
             inkscape:transform-center-x="-4.1672745"
             inkscape:transform-center-y="-0.16434201"
             d="m 62.757001,14.271314 c 0.329506,1.073007 0.01468,2.5617 -0.703182,3.325088 -0.717863,0.763388 -1.566923,0.512392 -1.896429,-0.560615 -0.329506,-1.073008 -0.01468,-2.5617 0.703182,-3.325088 0.717863,-0.763388 1.566923,-0.512393 1.896429,0.560615 z"
             style="fill:#28170b;fill-opacity:1;stroke:#000000;stroke-width:0.0132292"
             inkscape:original-d="m 51.733951,31.415993 c 0,1.104569 -0.895318,2 -1.999749,2 -1.104431,0 -1.999749,-0.895431 -1.999749,-2 0,-1.10457 0.895318,-2 1.999749,-2 1.104431,0 1.999749,0.89543 1.999749,2 z" /></g></a></g></g><g
     inkscape:groupmode="layer"
     id="layer1"
     inkscape:label="patte arrière droite"><path
       style="display:inline;fill:url(#linearGradient7132);fill-opacity:1;stroke:url(#pattern2693);stroke-width:0;stroke-dasharray:none"
       d="m -20.259683,-16.476042 c 0,0 13.2902305,-2.857249 12.9292964,4.497916 l -0.2798692,5.7032148 c 0,0 -0.9155182,3.2297969 -1.8310364,5.0124104 -0.8215748,1.59969571 -3.6940848,5.8208333 -3.6940848,5.8208333 0,0 -4.221812,3.8364583 1.451248,4.3656249 5.6730585,0.5291667 7.1243061,0.5291667 7.1243061,0.5291667 l 1.7151109,0.6614579 c 0,0 5.4091958,4.365625 -1.8470425,4.497917 -7.2562375,0.132291 -15.3040655,-0.529167 -15.3040655,-0.529167 -4.520473,-0.541543 -6.07673,-0.450939 -4.617606,-4.4979162 1.048206,-2.7189488 3.481752,-6.8744622 3.977147,-9.13661521 0.381948,-1.74410789 0.548219,-3.10238789 0.259984,-3.48864379 -1.102026,-1.4767886 -1.600384,-2.0141671 -1.964647,-2.6181444 -0.80129,-1.8087705 -0.66048,-5.8151424 -0.755271,-7.7280044 z"
       id="path6824"
       sodipodi:nodetypes="cscscsccsccssccc"
       inkscape:label="patte_arrière"
       sodipodi:insensitive="true" /></g></svg>
